<svg width="13" height="17" viewBox="0 0 13 17" fill="none" xmlns="http://www.w3.org/2000/svg">
<path d="M6.85639 9.425L6.86193 9.39915C6.96903 8.95781 7.10384 8.40753 6.99858 7.90895C6.92841 7.51562 6.63849 7.36236 6.39105 7.35128C6.09929 7.33835 5.83892 7.50455 5.77429 7.74645C5.65241 8.18963 5.76136 8.79531 5.96079 9.56719C5.70966 10.1655 5.30895 11.0352 5.01534 11.5523C4.46875 11.8348 3.73565 12.2706 3.6267 12.8209C3.60455 12.9224 3.6304 13.0517 3.69133 13.168C3.75966 13.2973 3.86861 13.397 3.99602 13.445C4.05142 13.4653 4.1179 13.482 4.19545 13.482C4.52045 13.482 5.04673 13.2197 5.74844 12.0158C5.85554 11.9807 5.96633 11.9438 6.07344 11.9068C6.57571 11.7369 7.09645 11.5597 7.56733 11.4803C8.08807 11.7591 8.68082 11.9382 9.08338 11.9382C9.48224 11.9382 9.6392 11.7018 9.6983 11.5597C9.8017 11.3104 9.75185 10.9964 9.58381 10.8284C9.34006 10.5884 8.7473 10.5256 7.82401 10.6401C7.36974 10.3631 7.07244 9.98636 6.85639 9.425ZM4.83068 12.23C4.57401 12.603 4.38011 12.7895 4.27486 12.8707C4.39858 12.6436 4.64048 12.4036 4.83068 12.23ZM6.4483 7.88125C6.54432 8.0456 6.53139 8.54233 6.45753 8.79347C6.36705 8.42599 6.35412 7.90526 6.40767 7.84432C6.42244 7.84617 6.43537 7.85724 6.4483 7.88125ZM6.41875 10.1064C6.61633 10.448 6.86562 10.7416 7.14077 10.9595C6.7419 11.05 6.37812 11.1996 6.05312 11.3325C5.97557 11.3639 5.89986 11.3953 5.82599 11.4249C6.07159 10.9798 6.27656 10.4757 6.41875 10.1064ZM9.29205 11.3159C9.29389 11.3196 9.29574 11.3251 9.28466 11.3325H9.28096L9.27727 11.3381C9.2625 11.3473 9.11108 11.4359 8.45923 11.1793C9.20895 11.1442 9.2902 11.3141 9.29205 11.3159ZM12.8264 4.14744L8.85256 0.17358C8.74176 0.0627841 8.59219 0 8.43523 0H0.590909C0.264062 0 0 0.264062 0 0.590909V15.9545C0 16.2814 0.264062 16.5455 0.590909 16.5455H12.4091C12.7359 16.5455 13 16.2814 13 15.9545V4.56662C13 4.40966 12.9372 4.25824 12.8264 4.14744ZM11.6372 4.83807H8.16193V1.36278L11.6372 4.83807ZM11.6705 15.2159H1.32955V1.32955H6.90625V5.31818C6.90625 5.52388 6.98796 5.72114 7.13341 5.86659C7.27886 6.01204 7.47612 6.09375 7.68182 6.09375H11.6705V15.2159Z" fill="#002958"/>
</svg>
